<svg width="14" height="16" viewBox="0 0 14 16" fill="none" xmlns="http://www.w3.org/2000/svg">
<path fill-rule="evenodd" clip-rule="evenodd" d="M9.45672 2.5543C10.04 1.8783 10.4331 0.936784 10.3255 0C9.48504 0.032 8.46818 0.536917 7.8655 1.21211C7.32431 1.8113 6.85188 2.76872 6.97889 3.68711C7.91647 3.7567 8.87346 3.23108 9.45672 2.5543ZM11.5592 8.5C11.5827 10.9216 13.7757 11.7271 13.8 11.7375C13.7822 11.7943 13.4497 12.8853 12.6448 14.0133C11.9483 14.9877 11.2259 15.9581 10.0877 15.9789C8.96973 15.9989 8.60974 15.3438 7.33078 15.3438C6.05263 15.3438 5.65301 15.958 4.59489 15.9988C3.49633 16.038 2.65906 14.9446 1.95769 13.9734C0.5226 11.9871 -0.573536 8.36007 0.898766 5.91211C1.63006 4.69693 2.93653 3.92623 4.35544 3.90703C5.43378 3.88703 6.45226 4.60234 7.11156 4.60234C7.77086 4.60234 9.00856 3.74235 10.3094 3.86875C10.8538 3.89035 12.3827 4.07908 13.364 5.45586C13.2847 5.50306 11.5398 6.47603 11.5592 8.5Z" fill="white"/>
</svg>
