<svg width="16" height="16" viewBox="0 0 16 16" fill="none" xmlns="http://www.w3.org/2000/svg">
<path fill-rule="evenodd" clip-rule="evenodd" d="M5.032 14.3998C11.0696 14.3998 14.372 9.47466 14.372 5.20411C14.372 5.06391 14.372 4.92476 14.3624 4.78614C15.0048 4.32931 15.5592 3.7621 16 3.11309C15.4016 3.37459 14.7656 3.54608 14.1152 3.62169C14.8 3.21763 15.3128 2.58284 15.5584 1.8338C14.9136 2.21028 14.2088 2.47599 13.4736 2.61856C12.2304 1.31739 10.1512 1.25434 8.8288 2.47833C7.9768 3.26754 7.6144 4.44423 7.8792 5.56661C5.24 5.43586 2.7808 4.20875 1.1136 2.19005C0.2424 3.66685 0.688 5.55541 2.1304 6.50372C1.608 6.48875 1.0968 6.35028 0.64 6.09981V6.14083C0.6408 7.67908 1.7424 9.0036 3.2736 9.30841C2.7904 9.43837 2.2832 9.45721 1.792 9.36348C2.2216 10.6804 3.4544 11.5824 4.8584 11.6084C3.696 12.5079 2.26 12.9963 0.7816 12.9947C0.5208 12.9939 0.26 12.979 0 12.9482C1.5016 13.8966 3.248 14.3998 5.032 14.3975" fill="white"/>
</svg>
